<svg width="375" height="320" viewBox="0 0 375 320" fill="none" xmlns="http://www.w3.org/2000/svg">
<g clip-path="url(#clip0_1454_523)">
<mask id="mask0_1454_523" style="mask-type:alpha" maskUnits="userSpaceOnUse" x="-185" y="-448" width="746" height="768">
<ellipse cx="187.956" cy="-63.8386" rx="372.263" ry="383.839" fill="#C4C4C4"/>
</mask>
<g mask="url(#mask0_1454_523)">
<path d="M-80.2916 64.1691C-63.3032 -16.0261 -22.519 -107.816 53.1617 -166.278C119.95 -217.88 199.433 -237.367 305.962 -206.71C412.492 -176.052 460.452 -108.363 496.33 -3.82378C532.146 100.655 476.95 222.556 378.761 288.728C280.572 354.899 120.624 354.717 27.3419 305.847C-73.3613 253.031 -98.8744 151.892 -80.2916 64.1691Z" fill="#3333FF"/>
<path opacity="0.01" fill-rule="evenodd" clip-rule="evenodd" d="M230.22 -156.99C138.287 -198.089 26.9122 -182.608 -12.7067 -57.3072C-52.3257 67.9939 9.98522 228.566 101.857 269.666C193.729 310.765 394.951 242.165 434.57 116.803C474.189 -8.55879 322.092 -115.951 230.22 -156.99Z" fill="#0000CC"/>
<path opacity="0.02" fill-rule="evenodd" clip-rule="evenodd" d="M228.319 -139.202C144.236 -176.78 42.3065 -162.696 6.06071 -47.9578C-30.1851 66.7801 26.8515 213.572 110.873 251.15C194.895 288.728 379.068 226.017 415.313 111.279C451.559 -3.45894 312.402 -101.684 228.319 -139.202Z" fill="#0000CC"/>
<path opacity="0.03" fill-rule="evenodd" clip-rule="evenodd" d="M225.498 -112.733C153.068 -145.09 65.3053 -132.949 34.0272 -34.1164C2.74907 64.7161 51.9354 191.171 124.366 223.589C196.796 256.007 355.395 201.916 386.611 103.083C417.828 4.25099 297.99 -80.3758 225.498 -112.733Z" fill="#0000CC"/>
<path opacity="0.04" fill-rule="evenodd" clip-rule="evenodd" d="M222.677 -86.2039C161.9 -113.34 88.2426 -103.141 61.9935 -20.2143C35.7445 62.7127 77.0193 168.83 137.797 196.027C198.575 223.224 331.721 177.815 357.909 94.8879C384.097 11.9608 283.516 -59.0674 222.677 -86.2039Z" fill="#0000CC"/>
<path opacity="0.05" fill-rule="evenodd" clip-rule="evenodd" d="M219.917 -59.7358C170.792 -81.7121 111.241 -73.4558 90.0205 -6.43427C68.8004 60.5873 102.164 146.428 151.289 168.405C200.414 190.381 308.047 153.713 329.206 86.631C350.365 19.5487 269.042 -37.7596 219.917 -59.7358Z" fill="#0000CC"/>
<path opacity="0.06" fill-rule="evenodd" clip-rule="evenodd" d="M217.095 -33.2066C179.623 -49.9619 134.178 -43.6483 117.987 7.46774C101.796 58.5838 127.248 124.088 164.72 140.843C202.192 157.598 284.313 129.612 300.504 78.496C316.633 27.3192 254.629 -16.4512 217.095 -33.2066Z" fill="#0000CC"/>
<path d="M188.358 334.061C238.342 334.061 278.863 292.281 278.863 240.742C278.863 189.203 238.342 147.423 188.358 147.423C138.374 147.423 97.8535 189.203 97.8535 240.742C97.8535 292.281 138.374 334.061 188.358 334.061Z" fill="#FFD147"/>
<path d="M327.267 231.753C332.087 230.008 340.599 223.558 342.24 227.523C342.496 228.21 342.394 229.003 341.983 229.585C339.984 232.493 338.086 235.771 336.804 237.939C335.574 240.107 333.42 241.534 331.01 241.904C325.113 242.75 315.217 242.539 311.884 242.433C311.166 242.433 310.55 242.01 310.14 241.428C309.576 240.53 308.704 239.155 308.089 238.15C307.576 237.304 307.628 236.194 308.294 235.454C308.653 235.031 309.217 234.767 309.781 234.714C313.473 234.555 321.934 233.656 327.267 231.753Z" fill="#F7B58E"/>
<path d="M206.918 215.098C241.787 236.776 314.549 231.7 314.549 231.7L317.113 246.61C317.113 246.61 227.788 271.46 217.533 254.647C207.277 237.886 172.049 193.421 206.918 215.098Z" fill="#0000CC"/>
<path d="M181.381 198.127L179.945 212.772L195.123 213.354L192.098 190.725L181.381 198.127Z" fill="#F39F85"/>
<path d="M176.715 200.824C174.972 200.771 173.331 200.506 172.459 199.766C167.383 192.153 173.177 171.585 173.177 171.585L181.33 168.043L191.688 174.705L192.252 188.504C192.406 192.205 190.714 195.695 187.637 198.021C184.355 199.872 180.561 200.929 176.715 200.824Z" fill="#F7B58E"/>
<path d="M189.996 182.477C189.432 180.15 189.74 174.81 187.433 175.18C185.74 175.445 180.049 175.709 178.1 175.709C173.536 175.709 165.332 173.859 165.332 166.668C165.332 163.073 168.716 159.953 170.87 159.054C172.972 158.156 175.331 158.208 177.485 158.949C182.51 160.746 189.227 164.765 191.894 164.236C196.406 163.284 200.867 166.034 200.816 169.946C200.765 174.176 198.611 180.468 196.611 184.486C195.432 186.812 193.894 188.874 192.048 190.672L189.996 182.477Z" fill="black"/>
<path d="M194.662 183.006C193.637 182.054 191.739 182.266 190.406 183.376C189.073 184.539 188.816 186.231 189.842 187.13C190.868 188.082 192.765 187.87 194.098 186.76C195.431 185.649 195.688 183.958 194.662 183.006Z" fill="#F7B58E"/>
<path d="M195.689 209.6L194.099 204.577H180.613L178.921 209.706C164.974 214.676 154.77 235.031 154.77 250.311V311.167H219.43V241.27C219.379 226.308 209.585 213.09 195.689 209.6Z" fill="#0000CC"/>
<path d="M48.728 231.753C43.9079 230.008 35.3959 223.558 33.755 227.523C33.4986 228.21 33.6012 229.003 34.0114 229.585C36.0112 232.493 37.9085 235.771 39.1904 237.939C40.4211 240.107 42.5747 241.534 44.9848 241.904C50.8816 242.75 60.7782 242.539 64.1112 242.433C64.8291 242.433 65.4444 242.01 65.8546 241.428C66.4187 240.53 67.2904 239.155 67.9057 238.15C68.4185 237.304 68.3672 236.194 67.7006 235.454C67.3417 235.031 66.7776 234.767 66.2136 234.714C62.5216 234.555 54.0608 233.656 48.728 231.753Z" fill="#F7B58E"/>
<path d="M169.076 215.098C134.207 236.776 61.4447 231.7 61.4447 231.7L58.8809 246.61C58.8809 246.61 148.206 271.46 158.461 254.647C168.717 237.886 203.945 193.421 169.076 215.098Z" fill="#0000CC"/>
<path d="M187.074 300.857C155.077 287.798 105.389 270.985 99.2357 290.019C94.1592 305.774 129.336 317.353 161.64 324.491L159.999 312.754C159.948 312.806 171.383 307.255 187.074 300.857Z" fill="black"/>
<path d="M274.912 290.018C268.759 271.037 219.071 287.797 187.074 300.856C202.765 307.254 214.2 312.805 214.2 312.805L212.559 324.543C244.761 317.352 279.989 305.773 274.912 290.018Z" fill="black"/>
<path d="M187.073 300.857C171.382 307.255 159.947 312.807 159.947 312.807L161.588 324.544C170.613 326.553 179.433 328.192 187.022 329.514C194.662 328.192 203.43 326.553 212.455 324.544L214.096 312.807C214.199 312.807 202.764 307.255 187.073 300.857Z" fill="black"/>
<path d="M164.064 51.6964C164.525 51.2206 164.525 50.4804 164.064 50.0574L153.449 38.6899C152.988 38.214 152.27 38.214 151.86 38.6899C151.398 39.1657 151.398 39.906 151.86 40.3289L162.525 51.6435C162.936 52.1194 163.654 52.1194 164.064 51.6964Z" fill="white"/>
<path d="M211.956 52.3839C211.495 51.908 211.546 51.1678 211.956 50.7449L222.929 39.7475C223.391 39.2717 224.109 39.3245 224.519 39.7475C224.981 40.2234 224.929 40.9636 224.519 41.3865L213.546 52.3839C213.084 52.8597 212.366 52.8597 211.956 52.3839Z" fill="white"/>
<path d="M191.497 47.9954C192.113 47.9954 192.625 47.4667 192.625 46.8322L192.83 31.0235C192.83 30.3891 192.318 29.8604 191.702 29.8604C191.087 29.8604 190.574 30.3891 190.574 31.0235L190.369 46.8322C190.369 47.4667 190.882 47.9954 191.497 47.9954Z" fill="white"/>
<path d="M166.32 129.576C166.782 130.052 166.782 130.792 166.32 131.215L155.654 142.53C155.193 143.005 154.475 143.005 154.065 142.53C153.603 142.054 153.603 141.314 154.065 140.891L164.731 129.576C165.141 129.153 165.859 129.153 166.32 129.576Z" fill="white"/>
<path d="M214.161 128.889C213.7 129.365 213.751 130.105 214.161 130.528L225.135 141.526C225.596 142.001 226.314 141.948 226.724 141.526C227.186 141.05 227.134 140.309 226.724 139.886L215.751 128.889C215.289 128.413 214.571 128.413 214.161 128.889Z" fill="white"/>
<path d="M193.702 133.277C194.318 133.277 194.83 133.806 194.83 134.441L195.036 150.249C195.036 150.884 194.523 151.412 193.907 151.412C193.292 151.412 192.779 150.884 192.779 150.249L192.574 134.441C192.574 133.859 193.087 133.33 193.702 133.277Z" fill="white"/>
<path d="M196.676 73.1625C187.292 69.6201 176.883 74.6429 173.448 84.3185C170.012 93.994 174.883 104.727 184.267 108.269C193.651 111.812 204.06 106.789 207.496 97.1135C210.931 87.4379 206.06 76.7049 196.676 73.1625ZM185.498 104.727C177.96 101.925 174.114 93.3067 176.832 85.5874C179.55 77.8152 187.908 73.8498 195.394 76.652C202.932 79.4542 206.778 88.0724 204.06 95.7917C201.342 103.564 193.036 107.582 185.498 104.727ZM200.984 94.7342C198.881 100.709 192.42 103.828 186.626 101.608C180.832 99.4398 177.806 92.778 179.96 86.8034L200.984 94.7342Z" fill="white"/>
</g>
</g>
<defs>
<clipPath id="clip0_1454_523">
<rect width="375" height="320" fill="white"/>
</clipPath>
</defs>
</svg>
